<svg width="24" height="21" viewBox="0 0 24 21" fill="none" xmlns="http://www.w3.org/2000/svg">
<path fill-rule="evenodd" clip-rule="evenodd" d="M6.25648 2.52045L7 2L6.25648 1.47955L6.41421 0.585786L5.52045 0.743524L5 0L4.47955 0.743524L3.58579 0.585786L3.74352 1.47955L3 2L3.74352 2.52045L3.58579 3.41421L4.47955 3.25648L5 4L5.52045 3.25648L6.41421 3.41421L6.25648 2.52045ZM9.42811 6.52045L10.1716 6L9.42811 5.47955L9.58584 4.58579L8.69208 4.74352L8.17163 4L7.65118 4.74352L6.75742 4.58579L6.91515 5.47955L6.17163 6L6.91515 6.52045L6.75742 7.41421L7.65118 7.25648L8.17163 8L8.69208 7.25648L9.58584 7.41421L9.42811 6.52045ZM16.1716 6L15.4281 6.52045L15.5858 7.41421L14.6921 7.25648L14.1716 8L13.6512 7.25648L12.7574 7.41421L12.9152 6.52045L12.1716 6L12.9152 5.47955L12.7574 4.58579L13.6512 4.74352L14.1716 4L14.6921 4.74352L15.5858 4.58579L15.4281 5.47955L16.1716 6ZM12.2565 2.52045L13 2L12.2565 1.47955L12.4142 0.585786L11.5204 0.743524L11 0L10.4796 0.743524L9.58579 0.585786L9.74352 1.47955L9 2L9.74352 2.52045L9.58579 3.41421L10.4796 3.25648L11 4L11.5204 3.25648L12.4142 3.41421L12.2565 2.52045ZM4 6L3.25648 6.52045L3.41421 7.41421L2.52045 7.25648L2 8L1.47955 7.25648L0.585786 7.41421L0.743524 6.52045L0 6L0.743524 5.47955L0.585786 4.58579L1.47955 4.74352L2 4L2.52045 4.74352L3.41421 4.58579L3.25648 5.47955L4 6ZM19.0172 6.24851L19.018 6.24801C19.2841 6.09785 19.581 6.0107 19.886 5.99326C20.1913 5.9758 20.4966 6.02869 20.7782 6.14783C21.0599 6.26698 21.3105 6.4492 21.5106 6.68048C21.7108 6.91175 21.8552 7.1859 21.9328 7.48181C22.0104 7.77772 22.019 8.08748 21.958 8.38725C21.897 8.68702 21.7681 8.96878 21.5811 9.21085C21.3941 9.45291 21.1541 9.6488 20.8795 9.78345C20.6049 9.91809 20.303 9.98789 19.9972 9.98746L19.9972 9.98962H0V11.9896H19.9944V11.9899C20.6066 11.9908 21.2108 11.851 21.7606 11.5815C21.8403 11.5424 21.9185 11.5008 21.9952 11.4567C22.4474 11.1963 22.8451 10.8496 23.1651 10.4352C23.5395 9.95066 23.7976 9.3866 23.9197 8.78651C24.0417 8.18642 24.0245 7.56631 23.8692 6.97394C23.7139 6.38158 23.4248 5.83277 23.0241 5.36979C22.6234 4.90681 22.1218 4.54201 21.5579 4.3035C21.0757 4.09954 20.559 3.99258 20.0373 3.98772C19.9489 3.9869 19.8603 3.98901 19.7718 3.99407C19.1613 4.02897 18.567 4.2034 18.0345 4.50394L18.0325 4.50504L18.0336 4.50706L19.0172 6.24851ZM0 16.0524L13.2058 20.7505L13.2057 20.7509C13.6836 20.9416 14.1977 21.0245 14.7113 20.9937C14.9088 20.9819 15.1043 20.9533 15.2959 20.9087C15.6026 20.8372 15.8991 20.7244 16.1771 20.5727C16.6288 20.3263 17.0206 19.9832 17.3246 19.5679C17.6286 19.1526 17.8372 18.6754 17.9357 18.1702C18.0342 17.6651 18.0201 17.1444 17.8943 16.6453C17.7686 16.1462 17.5344 15.681 17.2083 15.2829C17.0076 15.0378 16.7752 14.8218 16.5178 14.6403C16.357 14.5269 16.1866 14.427 16.008 14.3418C15.5443 14.1206 15.0376 14.0042 14.5239 14.001V13.998L0 13.9979V16.0524ZM14.5103 15.9982L5.8151 15.9981L13.9842 18.9044L13.9835 18.9064C14.1776 18.9781 14.3847 19.0088 14.5916 18.9963C14.8115 18.9832 15.0258 18.9216 15.2193 18.8161C15.4127 18.7105 15.5805 18.5636 15.7106 18.3858C15.8408 18.208 15.9302 18.0036 15.9723 17.7873C16.0145 17.5709 16.0085 17.348 15.9546 17.1343C15.9008 16.9205 15.8005 16.7213 15.6608 16.5508C15.5212 16.3803 15.3457 16.2427 15.1468 16.1478C14.9483 16.0531 14.7312 16.0033 14.5112 16.0019L14.5103 16.0019L14.5103 16.0015L14.5103 15.9982Z" fill="white"/>
</svg>
