<svg width="126" height="108" viewBox="0 0 126 108" fill="none" xmlns="http://www.w3.org/2000/svg">
<g clip-path="url(#clip0_2_687)">
<path d="M19.4987 66.3079C52.7734 66.3079 79.7478 41.9929 79.7478 11.9989C79.7478 -17.9952 52.7734 -42.3101 19.4987 -42.3101C-13.7759 -42.3101 -40.7503 -17.9952 -40.7503 11.9989C-40.7503 41.9929 -13.7759 66.3079 19.4987 66.3079Z" fill="#FFD347"/>
<path d="M19.5 108C17.7224 108 16.2813 106.701 16.2813 105.099V89.5826C16.2813 87.9799 17.7224 86.6812 19.5 86.6812C21.2776 86.6812 22.7187 87.9799 22.7187 89.5826V105.099C22.7187 106.701 21.2776 108 19.5 108Z" fill="#FFD347"/>
<path d="M71.1434 95.5275C70.0309 95.5275 68.9493 95.0074 68.3531 94.0766L59.747 80.6396C58.8584 79.2521 59.3855 77.4776 60.9252 76.6762C62.4644 75.876 64.433 76.35 65.322 77.7382L73.9282 91.1752C74.8168 92.5627 74.2897 94.3372 72.75 95.1386C72.2429 95.4022 71.6896 95.5275 71.1434 95.5275Z" fill="#FFD347"/>
<path d="M108.941 61.4509C108.395 61.4509 107.842 61.3256 107.335 61.0616L92.4284 53.304C90.8891 52.503 90.3616 50.7285 91.2502 49.3406C92.1388 47.9527 94.1074 47.478 95.6471 48.2786L110.554 56.0362C112.093 56.8372 112.621 58.6117 111.732 59.9996C111.135 60.9304 110.054 61.4509 108.941 61.4509Z" fill="#FFD347"/>
<path d="M122.781 14.9014H105.568C103.791 14.9014 102.349 13.6028 102.349 12C102.349 10.3973 103.791 9.09864 105.568 9.09864H122.781C124.559 9.09864 126 10.3973 126 12C126 13.6028 124.559 14.9014 122.781 14.9014Z" fill="#FFD347"/>
<path d="M19.5 -42.3075C17.3192 -42.3075 15.1659 -42.2002 13.0451 -41.997C43.2832 -39.0934 66.8372 -16.0275 66.8372 11.9996C66.8372 40.0267 43.2828 63.093 13.0451 65.9966C15.1659 66.2006 17.3188 66.3071 19.5 66.3071C52.7738 66.3071 79.7474 41.9929 79.7474 11.9996C79.7474 -17.9936 52.7742 -42.3075 19.5 -42.3075Z" fill="#FFBE31"/>
</g>
<defs>
<clipPath id="clip0_2_687">
<rect width="213" height="192" fill="white" transform="translate(-87 -84)"/>
</clipPath>
</defs>
</svg>
